<svg width="37" height="34" viewBox="0 0 37 34" fill="none" xmlns="http://www.w3.org/2000/svg">
<path d="M9.41732 24.8H17.8911C23.1265 24.8 23.9228 21.417 24.8885 16.4829C25.1671 15.0597 25.3063 14.3482 24.9714 13.8741C24.6364 13.4 23.9944 13.4 22.7104 13.4H7.08398" stroke="white" stroke-width="1.75" stroke-linecap="round"/>
<path d="M9.41667 24.8L6.35852 9.81791C6.09884 8.74951 5.16555 8 4.09486 8H3" stroke="white" stroke-width="1.75" stroke-linecap="round"/>
<path d="M10.444 24.8H9.96398C8.3734 24.8 7.08398 26.1815 7.08398 27.8857C7.08398 28.1698 7.29889 28.4 7.56398 28.4H20.5007" stroke="white" stroke-width="1.75" stroke-linecap="round" stroke-linejoin="round"/>
<ellipse cx="12.334" cy="30.2" rx="1.75" ry="1.8" stroke="white" stroke-width="1.75"/>
<ellipse cx="20.5" cy="30.2" rx="1.75" ry="1.8" stroke="white" stroke-width="1.75"/>
<circle cx="27" cy="10" r="10" fill="#EF4444"/>
<path d="M22.198 15V7.51H20.238V6.236C20.6207 6.21733 20.9613 6.17533 21.26 6.11C21.5587 6.04467 21.8247 5.93267 22.058 5.774C22.3007 5.61533 22.5153 5.39133 22.702 5.102H23.948V15H22.198ZM25.668 15V13.558L28.426 11.234C28.65 11.0473 28.8974 10.842 29.168 10.618C29.4387 10.394 29.6954 10.1513 29.938 9.89C30.19 9.61933 30.4 9.33933 30.568 9.05C30.736 8.76067 30.82 8.45733 30.82 8.14C30.82 7.664 30.6754 7.29067 30.386 7.02C30.106 6.74933 29.7047 6.614 29.182 6.614C28.7247 6.614 28.3514 6.712 28.062 6.908C27.7727 7.104 27.5907 7.37 27.516 7.706H25.794C25.8594 7.08067 26.06 6.572 26.396 6.18C26.7414 5.77867 27.166 5.48 27.67 5.284C28.174 5.07867 28.7014 4.976 29.252 4.976C29.8774 4.976 30.4374 5.09267 30.932 5.326C31.4267 5.55 31.8187 5.886 32.108 6.334C32.4067 6.77267 32.556 7.30933 32.556 7.944C32.556 8.51333 32.444 9.02667 32.22 9.484C32.0054 9.94133 31.7114 10.3613 31.338 10.744C30.974 11.1173 30.5727 11.486 30.134 11.85L28.244 13.404H32.584V15H25.668Z" fill="white"/>
</svg>
