<svg width="24" height="24" viewBox="0 0 24 24" fill="none" xmlns="http://www.w3.org/2000/svg">
<path d="M12 22.0001C11.1818 22.0001 10.4002 21.6699 8.83693 21.0096C4.94564 19.3658 3 18.5439 3 17.1614C3 16.7743 3 10.0646 3 7.00012M12 22.0001C12.8182 22.0001 13.5998 21.6699 15.1631 21.0096C19.0544 19.3658 21 18.5439 21 17.1614V7.00012M12 22.0001V11.3549" stroke="#00B795" stroke-width="1.5" stroke-linecap="round" stroke-linejoin="round"/>
<path d="M8.32592 9.69126L5.40472 8.27773C3.80157 7.50198 3 7.11411 3 6.49988C3 5.88565 3.80157 5.49778 5.40472 4.72203L8.32592 3.3085C10.1288 2.43609 11.0303 1.99988 12 1.99988C12.9697 1.99988 13.8712 2.43608 15.6741 3.3085L18.5953 4.72203C20.1984 5.49778 21 5.88565 21 6.49988C21 7.11411 20.1984 7.50198 18.5953 8.27773L15.6741 9.69126C13.8712 10.5637 12.9697 10.9999 12 10.9999C11.0303 10.9999 10.1288 10.5637 8.32592 9.69126Z" stroke="#00B795" stroke-width="1.5" stroke-linecap="round" stroke-linejoin="round"/>
<path d="M6 12L8 13" stroke="#00B795" stroke-width="1.5" stroke-linecap="round" stroke-linejoin="round"/>
<path d="M17.002 4.00012L7.00195 9.00012" stroke="#00B795" stroke-width="1.5" stroke-linecap="round" stroke-linejoin="round"/>
</svg>
