<svg width="24" height="24" viewBox="0 0 24 24" fill="none" xmlns="http://www.w3.org/2000/svg">
<path d="M12.998 21.9999C12.1798 21.9999 11.3982 21.6587 9.83496 20.9763C8.01038 20.1799 6.61359 19.5702 5.64453 18.9999H1.99805M12.998 21.9999C13.8162 21.9999 14.5978 21.6587 16.1611 20.9763C20.0524 19.2778 21.998 18.4285 21.998 16.9999V6.49988M12.998 21.9999V10.9999M3.99805 6.49988V9.49988" stroke="#CBD5E1" stroke-width="1.5" stroke-linecap="round" stroke-linejoin="round"/>
<path d="M9.32787 9.69126L6.40667 8.27773C4.80352 7.50198 4.00195 7.11411 4.00195 6.49988C4.00195 5.88565 4.80352 5.49778 6.40667 4.72203L9.32787 3.3085C11.1308 2.43609 12.0323 1.99988 13.002 1.99988C13.9717 1.99988 14.8732 2.43608 16.6761 3.3085L19.5973 4.72203C21.2004 5.49778 22.002 5.88565 22.002 6.49988C22.002 7.11411 21.2004 7.50198 19.5973 8.27773L16.6761 9.69126C14.8732 10.5637 13.9717 10.9999 13.002 10.9999C12.0323 10.9999 11.1308 10.5637 9.32787 9.69126Z" stroke="#CBD5E1" stroke-width="1.5" stroke-linecap="round" stroke-linejoin="round"/>
<path d="M18.1386 4.0155L7.86914 8.98472" stroke="#CBD5E1" stroke-width="1.5" stroke-linecap="round" stroke-linejoin="round"/>
<path d="M1.99805 13.0001H4.99805" stroke="#CBD5E1" stroke-width="1.5" stroke-linecap="round" stroke-linejoin="round"/>
<path d="M1.99805 16.0001H4.99805" stroke="#CBD5E1" stroke-width="1.5" stroke-linecap="round" stroke-linejoin="round"/>
</svg>
